HIERARCHY
ROOT Hips
{
  OFFSET -125.086 92.215 135.881
  CHANNELS 6 Xposition Yposition Zposition Zrotation Xrotation Yrotation
  JOINT LeftUpLeg
  {
    OFFSET 8.64259 1.95398 -2.38835
    CHANNELS 3 Zrotation Xrotation Yrotation
    JOINT LeftLeg
    {
      OFFSET 43.7702 0 0
      CHANNELS 3 Zrotation Xrotation Yrotation
      JOINT LeftFoot
      {
        OFFSET 40.6238 0 0
        CHANNELS 3 Zrotation Xrotation Yrotation
        JOINT LeftToeBase
        {
          OFFSET 12.7242 0 0
          CHANNELS 3 Zrotation Xrotation Yrotation
          End Site
          {
            OFFSET 0 0 0
          }
        }
      }
    }
  }
  JOINT RightUpLeg
  {
    OFFSET -8.2249 1.95398 -2.59336
    CHANNELS 3 Zrotation Xrotation Yrotation
    JOINT RightLeg
    {
      OFFSET 43.5653 0 0
      CHANNELS 3 Zrotation Xrotation Yrotation
      JOINT RightFoot
      {
        OFFSET 40.6238 0 0
        CHANNELS 3 Zrotation Xrotation Yrotation
        JOINT RightToeBase
        {
          OFFSET 12.7242 0 0
          CHANNELS 3 Zrotation Xrotation Yrotation
          End Site
          {
            OFFSET 0 0 0
          }
        }
      }
    }
  }
  JOINT Spine
  {
    OFFSET 0.165834 0.87714 6.61349
    CHANNELS 3 Zrotation Xrotation Yrotation
    JOINT Spine1
    {
      OFFSET 7.38963 1.71661e-005 0
      CHANNELS 3 Zrotation Xrotation Yrotation
      JOINT Spine2
      {
        OFFSET 11.9445 1.14441e-005 0
        CHANNELS 3 Zrotation Xrotation Yrotation
        JOINT Spine3
        {
          OFFSET 14.7254 4.19617e-005 0
          CHANNELS 3 Zrotation Xrotation Yrotation
          JOINT Spine4
          {
            OFFSET 10.9679 0 0
            CHANNELS 3 Zrotation Xrotation Yrotation
            JOINT RightShoulder
            {
              OFFSET 2.46616 -1.6653 3.69651
              CHANNELS 3 Zrotation Xrotation Yrotation
              JOINT RightArm
              {
                OFFSET 13.0012 0 0
                CHANNELS 3 Zrotation Xrotation Yrotation
                JOINT RightForeArm
                {
                  OFFSET 28.7848 1.52588e-005 0
                  CHANNELS 3 Zrotation Xrotation Yrotation
                  JOINT RightHand
                  {
                    OFFSET 26.5688 1.52588e-005 0
                    CHANNELS 3 Zrotation Xrotation Yrotation
                    End Site
                    {
                      OFFSET 0 0 0
                    }
                  }
                }
              }
            }
            JOINT LeftShoulder
            {
              OFFSET 2.38034 -1.29275 -3.7523
              CHANNELS 3 Zrotation Xrotation Yrotation
              JOINT LeftArm
              {
                OFFSET 16.3182 6.10352e-005 0
                CHANNELS 3 Zrotation Xrotation Yrotation
                JOINT LeftForeArm
                {
                  OFFSET 27.0901 0 0
                  CHANNELS 3 Zrotation Xrotation Yrotation
                  JOINT LeftHand
                  {
                    OFFSET 24.5451 1.52588e-005 0
                    CHANNELS 3 Zrotation Xrotation Yrotation
                    End Site
                    {
                      OFFSET 0 0 0
                    }
                  }
                }
              }
            }
            JOINT Neck
            {
              OFFSET 5.0226 -0.0266342 0
              CHANNELS 3 Zrotation Xrotation Yrotation
              JOINT Head
              {
                OFFSET 6.69363 2.86102e-005 0
                CHANNELS 3 Zrotation Xrotation Yrotation
                End Site
                {
                  OFFSET 0 0 0
                }
              }
            }
          }
        }
      }
    }
  }
}
MOTION
Frames:	14
Frame Time:	0.0416667
-236.9 91.4073 240.37 96.3103 42.1597 100.723 -166.248 17.8252 105.691 -38.0839 26.1219 1.28422 69.8245 9.56406 11.8559 39.1378 -0.925421 1.67323 -179.58 17.3981 106.146 -57.2277 -4.52633 -0.234435 44.3244 3.4627 20.8952 42.039 -1.9637 4.88164 0.894212 7.32146 -91.561 12.2356 1.03782 -3.23185 0.560972 0.894662 -3.27434 -21.9523 1.9608 -2.77111 -1.93967 1.9608 -2.77111 111.892 -54.0942 -67.7743 23.915 -32.1861 -0.396899 3.40832 4.47433 -76.8305 -4.79705 -0.133986 -2.17194 -76.4298 -45.4753 99.1338 -31.0285 18.6713 -7.74394 -11.6781 -0.0859734 -55.761 -5.18662 0.211129 -16.6042 5.05345 0.217226 -8.1064 -20.2808 -0.463509 14.8163 
-231.269 92.1383 234.637 97.6958 39.0237 98.63 -161.789 8.12171 106.473 -30.715 25.9617 -1.25658 70.5804 10.3947 13.2399 41.3649 -1.07804 1.17974 -177.565 21.4041 105.344 -41.8388 -3.66251 -0.0781279 48.2578 2.10348 16.4843 47.4977 -2.6612 3.57947 1.06712 7.35925 -91.4585 12.1664 1.43117 -3.06906 0.492481 1.29476 -3.129 -22.0282 2.28712 -2.49755 -2.01553 2.2871 -2.49756 113.707 -54.3801 -65.1657 22.4959 -32.8871 -0.883064 3.19024 4.706 -77.5015 -4.48407 -0.140907 -1.7652 -76.3952 -45.0389 99.2012 -29.6225 20.4244 -10.4048 -13.8081 -0.697098 -54.1935 -3.34801 0.017949 -16.6267 5.00976 0.62334 -9.29051 -21.837 -0.0640114 14.8859 
-225.762 91.8808 229.186 100.87 37.4558 94.8347 -159.164 -1.86396 106.691 -26.5025 23.2523 -2.1443 71.6313 10.8549 12.0065 44.9165 -1.28959 3.6596 -173.713 17.697 103.325 -13.7075 -0.728948 -2.35541 46.9578 3.3436 19.8291 45.9724 -2.82971 -3.09818 1.22985 7.57714 -91.3042 11.7363 1.83375 -2.79206 0.0634948 1.70915 -2.86999 -22.4668 2.58792 -2.11217 -2.45414 2.58795 -2.11216 114.913 -54.6261 -63.4596 23.9558 -30.7454 0.490582 1.0582 4.19957 -77.7884 -2.14287 -0.0591458 -2.63412 -76.3493 -44.9662 99.2773 -28.7825 21.1701 -12.0953 -13.4479 0.133328 -53.4548 -2.46672 -0.0833997 -15.0141 5.15925 0.511914 -9.80097 -22.9598 -0.126888 14.3779 
-219.904 90.9628 223.619 105.384 37.2117 90.2929 -157.617 -10.3077 107.33 -27.9075 24.0965 -1.22629 71.0911 10.9469 11.3659 50.2959 -1.1904 8.55699 -173.553 15.936 101.968 -6.39299 8.03347 -3.97597 52.5909 3.76659 29.4661 48.4966 -3.50387 -5.72868 1.27466 7.91545 -91.2271 11.0603 1.96844 -2.63108 -0.612001 1.85078 -2.71512 -23.1464 2.66802 -1.91804 -3.13372 2.66804 -1.91804 115.925 -54.9524 -62.0667 25.7903 -29.6247 2.04611 2.84024 4.59908 -78.7459 -4.14185 -0.125956 -2.01677 -75.9647 -45.6132 99.8761 -28.2986 21.3395 -12.6125 -13.8637 0.144618 -52.5936 -2.96832 -0.0278334 -16.2095 5.82582 0.125284 -9.94761 -23.8701 -0.578895 14.5639 
-213.442 90.3341 217.446 106.938 37.822 88.2953 -160.362 -14.2646 105.437 -35.3614 22.9495 3.54897 66.3589 6.94237 6.04715 60.7666 -1.08049 9.9606 -174.482 13.1094 101.162 -8.60232 -3.6481 -1.70827 40.7931 4.94891 16.3322 46.133 -3.14783 -7.80462 1.09703 7.96483 -91.3354 10.9567 1.56606 -2.80552 -0.716525 1.44114 -2.87167 -23.2428 2.33664 -2.20552 -3.23017 2.33665 -2.20552 115.341 -54.8873 -62.8971 26.7527 -28.7209 2.81906 3.0463 4.43755 -78.4507 -5.55434 -0.208991 -0.88093 -75.1713 -47.1723 101.07 -30.1104 19.8246 -9.60645 -14.1505 -0.708802 -51.9207 -4.05244 0.0780797 -15.8322 6.21973 0.719903 -8.84959 -24.2144 -0.300669 15.0231 
-207.22 90.1919 211.407 104.347 39.6116 89.9419 -165.839 -4.96154 103.883 -52.1956 14.3502 5.16565 52.1579 -1.21233 -2.99657 65.6688 -2.80916 1.77319 -176.782 18.3563 101.351 -25.2371 -7.62811 -0.856502 47.7793 3.77906 11.0166 34.3869 -0.636205 -4.70914 0.941014 7.63472 -91.5504 11.6107 1.1457 -3.20899 -0.06379 1.00342 -3.25624 -22.5787 2.05683 -2.71689 -2.56606 2.05684 -2.71689 114.42 -54.3423 -64.1152 26.4164 -28.6828 3.50868 2.63711 4.38407 -78.0449 -4.58392 -0.144712 -1.69767 -75.3588 -46.8331 100.79 -33.7179 18.7977 -5.25516 -13.4429 -0.903696 -52.3983 -4.14476 0.105831 -17.0136 6.38847 0.662739 -9.3733 -23.5931 -0.398441 16.3708 
-201.255 90.521 206.042 101.247 42.3455 91.6218 -170.712 9.94165 101.438 -68.3074 9.07641 5.0444 52.052 0.661251 5.33117 57.8924 -1.46569 7.10532 -179.181 18.8342 101.062 -33.1317 -5.32421 -0.0101897 57.014 1.33959 10.6522 33.2716 -0.527347 -2.55838 0.997193 7.45944 -91.6004 11.9619 1.22843 -3.32488 0.287172 1.08099 -3.37565 -22.2267 2.17052 -2.80262 -2.21401 2.17052 -2.80263 113.755 -53.7022 -64.956 25.3897 -28.2692 2.51814 2.52707 4.49188 -78.7344 -3.71793 -0.127082 -1.40071 -75.845 -46.268 100.044 -33.3632 20.0972 -8.24912 -13.5382 -0.412854 -51.6207 -4.20746 0.102683 -16.4096 7.1261 -0.568845 -9.58496 -21.1868 -0.844978 14.3386 
-195.548 91.7692 200.322 96.133 43.2054 92.7599 -171.936 22.6944 96.1377 -64.6483 6.67739 3.04833 56.9072 4.60344 8.42229 55.3984 -1.19184 9.13165 179.372 16.7522 98.3555 -33.3964 -5.60973 0.0285665 62.0491 0.176991 11.4245 33.2862 -0.650402 -1.00735 1.13263 7.13005 -91.2669 12.6291 1.6454 -2.72649 0.956247 1.52385 -2.79621 -21.5723 2.38858 -2.10624 -1.55963 2.38859 -2.10625 112.938 -53.4207 -66.1075 24.5828 -29.0174 1.03687 3.53906 4.62602 -78.2312 -4.23088 -0.126511 -1.88847 -75.7766 -46.0964 100.159 -31.6677 20.5444 -11.053 -12.5169 0.574438 -51.9571 -4.38096 0.131337 -16.9441 6.50798 -1.13722 -8.42591 -20.4397 -1.15821 11.5083 
-190.017 92.7853 194.329 93.2924 43.6658 92.8288 -173.388 26.0957 92.2924 -42.4909 6.28584 1.00151 56.4524 3.87717 7.84129 56.7742 -1.03338 10.393 177.716 10.9566 95.3922 -29.8292 -3.66237 0.368614 67.4448 -0.671526 16.3481 30.3265 -0.0230354 -2.57852 1.07715 7.00176 -91.0219 12.8833 1.64908 -2.2419 1.21137 1.54884 -2.31226 -21.3228 2.24654 -1.64275 -1.31016 2.24652 -1.64275 112.034 -52.8784 -67.3497 23.7666 -30.6647 -1.22351 4.31148 4.85094 -78.3994 -5.20712 -0.154006 -1.93326 -74.9456 -47.2472 101.42 -30.6065 19.4918 -11.4077 -12.9214 -0.358533 -53.8133 -5.54601 0.243649 -16.3885 6.04734 -0.711899 -7.26734 -19.8048 -0.920229 11.4013 
-184.34 93.095 188.185 94.5194 45.0459 91.5092 -177.055 20.8845 90.8493 -11.836 5.27011 1.2679 53.8658 1.66939 7.07767 56.9761 -1.28842 8.40255 176.488 2.28803 94.4765 -26.0605 -0.597048 0.612354 70.1955 -0.52743 20.6921 30.4485 -0.00957854 -2.99588 0.840942 7.19969 -90.9586 12.4821 1.21443 -2.0549 0.809969 1.12285 -2.10634 -21.7211 1.77582 -1.59505 -1.70844 1.77581 -1.59506 111.395 -52.9498 -68.315 21.6742 -32.0731 -3.71426 5.31504 5.17941 -79.2018 -6.27827 -0.211832 -1.33396 -74.3882 -48.0763 102.243 -30.92 18.0427 -10.8413 -12.1846 -0.608151 -55.6168 -6.98575 0.394398 -16.3492 5.87187 -0.144429 -6.76687 -18.3803 -0.45137 12.375 
-178.134 92.2478 181.647 97.0041 47.1928 89.4693 179.743 20.0557 89.0559 -5.49782 8.59091 3.44143 56.1453 0.783434 4.20935 53.9494 -1.28286 8.47042 174.514 -4.70811 92.4987 -26.9372 -1.25889 1.74483 70.6842 -0.86827 20.7286 38.7775 -1.58616 -1.57443 0.539559 7.44335 -90.8637 11.9898 0.665443 -1.79424 0.317725 0.585849 -1.82178 -22.2113 1.17385 -1.5114 -2.19867 1.17387 -1.5114 111.495 -53.5624 -68.2697 19.3351 -32.4379 -5.68068 5.9858 5.23535 -78.5804 -6.65169 -0.236872 -1.08625 -73.8577 -48.7404 103.021 -29.5622 18.3047 -12.4263 -12.0695 -0.280598 -55.0747 -6.09249 0.338015 -17.6152 6.23806 0.262206 -5.39555 -17.9232 -0.00339936 10.4622 
-171.543 91.2745 174.741 96.7794 49.484 88.9078 176.661 20.9526 86.9167 -13.6875 15.061 5.17333 50.0298 -2.08834 4.77546 48.9102 -1.20533 8.7969 172.912 -8.01238 90.9359 -30.1516 -3.79415 2.02559 63.3272 0.601975 21.916 55.7935 -3.64849 3.69965 0.177732 7.42297 -90.5983 12.0267 0.0708844 -1.20127 0.355217 0.01794 -1.20322 -22.1759 0.428592 -1.12445 -2.16329 0.428628 -1.12444 111.831 -54.0895 -67.863 19.9721 -32.222 -4.34999 6.13848 4.99125 -77.2424 -6.72698 -0.113806 -3.46085 -74.0024 -48.6466 102.804 -28.6693 18.6232 -12.6748 -11.956 0.272624 -54.2903 -6.44963 0.380662 -17.6029 10.6681 -0.0151449 -6.0765 -22.0147 -0.19399 9.90275 
-165.266 89.9707 168.23 95.652 52.1822 89.1917 175.003 25.7664 84.3838 -32.605 18.3112 7.68179 54.1633 -0.741506 11.7318 37.7479 -0.837854 1.94653 168.775 -3.06551 87.8357 -42.1336 -5.43662 2.22506 42.92 5.37021 28.0014 63.4632 -1.45611 18.8487 -0.255626 7.26233 -90.3083 12.3474 -0.654356 -0.541339 0.676514 -0.677534 -0.512026 -21.8585 -0.461386 -0.71297 -1.84583 -0.461415 -0.712971 111.892 -54.326 -67.8135 23.363 -30.6834 -0.276895 3.5315 4.22654 -75.0622 -2.75911 -0.0577671 -3.47086 -75.0992 -47.7754 101.153 -28.4311 19.3171 -11.1824 -13.0226 -0.0010104 -52.9882 -5.60838 0.252366 -16.4638 7.40307 -0.405838 -7.38081 -17.0745 -0.253815 11.5919 
-159.44 90.5286 162.142 97.1327 52.6958 86.7841 176.578 20.9374 82.9775 -36.4443 17.8759 7.43659 61.0603 3.66858 12.8769 38.047 -0.84183 1.43062 169.279 10.6795 85.5962 -62.1247 -15.7534 0.24167 41.0915 6.29758 18.4553 59.5188 -3.53715 7.25416 -0.575646 7.43682 -90.0902 12.003 -1.18706 -0.0515186 0.332616 -1.18817 0.000766804 -22.2066 -1.1167 -0.405948 -2.19394 -1.11668 -0.405941 112.292 -54.6982 -67.2925 23.7214 -30.1066 -0.945401 4.11585 3.94907 -73.9022 -5.28468 -0.105458 -3.18618 -75.8842 -47.1843 99.9485 -27.1406 19.7727 -12.7035 -13.1682 0.559043 -51.5642 -5.26712 0.244966 -17.5813 9.5488 0.483009 -5.83448 -19.6907 0.34338 10.094 
